<svg width="245" height="42" viewBox="0 0 245 42" fill="none" xmlns="http://www.w3.org/2000/svg">
<g filter="url(#filter0_d_24_175)">
<path d="M4.00166 3.11163C3.98932 2.77356 4.04607 2.43795 4.16699 2.12456C4.28791 1.81116 4.47052 1.52985 4.70248 1.29542C5.24043 0.826559 5.91658 0.572388 6.61493 0.572388C7.31328 0.572388 7.98943 0.829026 8.52738 1.29542C8.75687 1.53478 8.93948 1.81857 9.06287 2.13196C9.18625 2.44536 9.25041 2.78096 9.25041 3.1215C9.25041 3.46204 9.18625 3.79764 9.06287 4.11104C8.93948 4.42443 8.75687 4.70822 8.52738 4.94758C7.99189 5.41644 7.31822 5.67061 6.61986 5.67061C5.92151 5.67061 5.24783 5.41397 4.71235 4.94758C4.48039 4.71069 4.29531 4.42443 4.17439 4.10857C4.05348 3.79024 3.99425 3.45217 4.00166 3.11163ZM8.96169 26.2585H4.2731V7.86191H8.96169V26.2585Z" fill="white"/>
<path d="M12.0118 16.9727C12.0118 14.1201 12.6978 11.8276 14.0673 10.0903C14.7089 9.2464 15.548 8.57025 16.5104 8.1162C17.4727 7.66215 18.5314 7.44499 19.5949 7.48447C20.5031 7.43759 21.4112 7.60292 22.2452 7.96567C23.0793 8.32842 23.8147 8.88118 24.3971 9.5746L24.5969 7.82255H29.135V25.7724C29.172 27.2654 28.7821 28.7361 28.0147 30.0193C27.262 31.2235 26.1664 32.181 24.8684 32.7708C23.3754 33.4272 21.7566 33.748 20.1255 33.711C18.7485 33.711 17.3864 33.4321 16.118 32.8991C14.9681 32.4623 13.9514 31.7344 13.1716 30.7892L15.3802 27.7688C15.9378 28.4252 16.6337 28.9508 17.4185 29.3111C18.2032 29.6714 19.0595 29.854 19.9232 29.849C21.0583 29.9132 22.1737 29.5332 23.0275 28.7904C23.41 28.3931 23.7061 27.9243 23.8961 27.4085C24.0861 26.8928 24.1651 26.3449 24.1305 25.7971V24.8026C23.563 25.4418 22.8622 25.9452 22.0725 26.2808C21.2853 26.6164 20.4315 26.7719 19.5752 26.7373C18.5215 26.7644 17.4752 26.5424 16.5252 26.0858C15.5751 25.6293 14.7509 24.9556 14.1167 24.1191C12.72 22.367 12.0315 20.0302 12.0315 17.1775V16.9678H12.0068L12.0118 16.9727ZM17.0088 17.328C16.9323 18.7198 17.2901 20.1017 18.0354 21.2837C18.3389 21.7403 18.7559 22.1153 19.2445 22.367C19.7356 22.6187 20.281 22.7446 20.8337 22.7273C21.4852 22.7717 22.1342 22.6385 22.7116 22.3374C23.2891 22.0388 23.7727 21.5873 24.1083 21.032V13.207C23.7826 12.6543 23.3063 12.2002 22.7338 11.9016C22.1613 11.603 21.5173 11.4673 20.8732 11.5117C20.313 11.4945 19.7603 11.6203 19.2643 11.8769C18.7683 12.1336 18.3488 12.5136 18.0452 12.98C17.3568 13.9547 17.0088 15.3983 17.0088 17.328Z" fill="white"/>
<path d="M37.0981 7.83265L37.256 10.0289C37.8877 9.20468 38.6996 8.54334 39.6274 8.10163C40.5553 7.65992 41.5744 7.44523 42.5985 7.48224C44.5677 7.48224 46.036 8.07942 46.9885 9.27131C47.941 10.4657 48.4444 12.2078 48.4741 14.5645V26.814H43.5116V14.6829C43.5856 13.8415 43.3388 13.0024 42.828 12.3386C42.5146 12.0697 42.1519 11.8673 41.7595 11.7415C41.3671 11.6156 40.9575 11.5712 40.5479 11.6107C39.9112 11.586 39.2795 11.7415 38.7267 12.0647C38.174 12.3855 37.7174 12.8593 37.4139 13.4318V26.8017H32.4514V7.84499L37.0981 7.83265Z" fill="white"/>
<path d="M51.5118 3.11153C51.4994 2.77346 51.5636 2.43786 51.6968 2.12446C51.8301 1.81107 52.03 1.52975 52.2866 1.29285C52.8813 0.826463 53.6315 0.569824 54.4039 0.569824C55.1763 0.569824 55.924 0.826463 56.5211 1.29285C57.0295 1.77899 57.3133 2.43539 57.3133 3.11894C57.3133 3.80248 57.0295 4.45889 56.5211 4.94502C55.9289 5.41141 55.1812 5.66805 54.4113 5.66805C53.6414 5.66805 52.8936 5.41141 52.3014 4.94502C52.0448 4.70812 51.8424 4.42187 51.7067 4.10601C51.571 3.79015 51.5068 3.45207 51.5167 3.11153H51.5118ZM56.9949 26.2608H51.8153V7.86182H56.9949V26.2584V26.2608Z" fill="white"/>
<path d="M66.4537 3.33377V7.94586H69.5605V11.6227H66.4537V21.0048C66.4043 21.5354 66.545 22.0684 66.8485 22.5002C67.0509 22.6779 67.2853 22.8087 67.5395 22.8877C67.7936 22.9642 68.0601 22.9864 68.3217 22.9493C68.798 22.9518 69.2718 22.9148 69.7431 22.8358V26.6385C68.7906 26.9396 67.7986 27.0901 66.8041 27.0876C63.4061 27.0876 61.6763 25.3134 61.6146 21.7673V11.6449H58.9717V7.96807H61.6146V3.35598H66.4562V3.3313L66.4537 3.33377Z" fill="white"/>
<path d="M80.4874 27.0804C79.2486 27.1273 78.0123 26.9274 76.85 26.4906C75.6902 26.0538 74.6291 25.3875 73.7284 24.5313C71.9887 22.831 71.1225 20.5731 71.1225 17.7328V17.2393C71.088 15.4823 71.4655 13.7426 72.2207 12.1583C72.8993 10.7246 73.9801 9.52037 75.3324 8.6937C76.7192 7.86949 78.3084 7.44999 79.9223 7.47466C82.4985 7.47466 84.5418 8.289 86.0199 9.9226C87.4981 11.5562 88.2458 13.8635 88.2458 16.8518V18.9074H76.2356C76.3466 20.045 76.8698 21.1012 77.7088 21.8785C78.5675 22.6311 79.6804 23.0284 80.8205 22.989C81.6916 23.0284 82.5627 22.8557 83.3524 22.488C84.1445 22.1203 84.8354 21.5651 85.3684 20.8742L87.8435 23.6552C87.0637 24.7509 86.0026 25.617 84.7737 26.1624C83.4313 26.7867 81.968 27.1001 80.4874 27.0779V27.0804ZM79.8927 11.5661C79.4386 11.5488 78.987 11.6302 78.5675 11.8054C78.148 11.9806 77.7729 12.2422 77.4645 12.5778C76.7883 13.4094 76.3762 14.4236 76.2775 15.4897H83.2833V15.085C83.3227 14.1325 82.9995 13.1972 82.3752 12.4766C82.0519 12.1633 81.6669 11.9214 81.245 11.766C80.823 11.6105 80.3739 11.5414 79.9248 11.5685H79.8951L79.8927 11.5661Z" fill="white"/>
<path d="M101.771 26.2587H96.8135V0.00012207H101.771V26.2587Z" fill="white"/>
<path d="M116.209 26.2587C115.982 25.8146 115.817 25.2618 115.713 24.6005C114.517 25.933 112.962 26.6017 111.047 26.6017C109.236 26.6017 107.733 26.0786 106.543 25.0298C105.352 23.9811 104.757 22.6584 104.757 21.0643C104.757 19.1049 105.482 17.5997 106.936 16.5509C108.389 15.5021 110.489 14.9716 113.236 14.9617H115.509V13.9006C115.509 13.0468 115.289 12.3608 114.85 11.85C114.41 11.3367 113.719 11.08 112.772 11.08C111.94 11.08 111.286 11.2799 110.815 11.6797C110.341 12.0795 110.107 12.6248 110.107 13.3207H105.166C105.166 12.2497 105.497 11.2577 106.158 10.3471C106.82 9.43657 107.755 8.72095 108.962 8.20273C110.168 7.68452 111.526 7.42542 113.031 7.42542C115.311 7.42542 117.12 7.99792 118.46 9.14292C119.8 10.2879 120.469 11.8993 120.469 13.9722V21.9897C120.481 23.7442 120.725 25.0718 121.204 25.9725V26.2637H116.212L116.209 26.2587ZM112.123 22.8237C112.851 22.8237 113.525 22.6609 114.139 22.3376C114.753 22.0119 115.21 21.5776 115.506 21.0297V17.8489H113.66C111.188 17.8489 109.87 18.7027 109.712 20.4128L109.695 20.704C109.695 21.3184 109.912 21.8268 110.344 22.2266C110.778 22.6263 111.37 22.8262 112.123 22.8262V22.8237Z" fill="white"/>
<path d="M140.58 17.1827C140.58 20.1464 139.948 22.4561 138.682 24.1144C137.417 25.7727 135.65 26.6018 133.382 26.6018C131.376 26.6018 129.774 25.8319 128.577 24.2945L128.355 26.2613H123.911V0.000244141H128.851V9.41937C129.991 8.08683 131.489 7.41809 133.347 7.41809C135.603 7.41809 137.372 8.24723 138.655 9.90551C139.938 11.5638 140.578 13.8982 140.578 16.9063V17.1802L140.58 17.1827ZM135.64 16.8249C135.64 14.9568 135.344 13.5922 134.751 12.731C134.159 11.8698 133.276 11.4404 132.101 11.4404C130.529 11.4404 129.446 12.0845 128.854 13.3726V20.672C129.458 21.97 130.551 22.6215 132.136 22.6215C133.72 22.6215 134.779 21.8343 135.282 20.2624C135.521 19.5097 135.64 18.3647 135.64 16.8249Z" fill="white"/>
<path d="M168.51 17.501H166.227V22.0317H164.179V10.251H168.322C169.682 10.251 170.73 10.557 171.471 11.1665C172.211 11.776 172.579 12.6594 172.579 13.8143C172.579 14.6015 172.389 15.2628 172.009 15.7934C171.629 16.3264 171.098 16.7336 170.419 17.0198L173.065 21.9256V22.0317H170.871L168.507 17.501H168.51ZM166.227 15.8501H168.332C169.023 15.8501 169.561 15.6749 169.951 15.327C170.341 14.979 170.533 14.5028 170.533 13.8982C170.533 13.2936 170.353 12.7779 169.995 12.4324C169.637 12.0869 169.102 11.9093 168.389 11.8994H166.227V15.8477V15.8501Z" fill="#C4C4CC"/>
<path d="M183.066 16.7731H178.227V20.3981H183.883V22.0317H176.179V10.251H183.827V11.9019H178.227V15.1543H183.066V16.7731Z" fill="#C4C4CC"/>
<path d="M193.803 19.2901H189.238L188.283 22.0341H186.156L190.608 10.251H192.444L196.903 22.0341H194.766L193.803 19.2901ZM189.813 17.6392H193.228L191.521 12.7507L189.813 17.6392Z" fill="#C4C4CC"/>
<path d="M208.716 18.1967C208.597 19.4528 208.133 20.4349 207.324 21.1382C206.514 21.8415 205.439 22.1944 204.096 22.1944C203.158 22.1944 202.332 21.9723 201.616 21.5256C200.901 21.0814 200.35 20.4472 199.96 19.628C199.573 18.8087 199.371 17.8562 199.353 16.7704V15.6698C199.353 14.5594 199.551 13.5797 199.943 12.7333C200.335 11.8869 200.903 11.2329 201.638 10.7739C202.374 10.3149 203.225 10.0854 204.192 10.0854C205.493 10.0854 206.539 10.4383 207.331 11.1416C208.123 11.8449 208.585 12.8418 208.716 14.1324H206.677C206.581 13.286 206.334 12.674 205.937 12.299C205.54 11.9239 204.96 11.7363 204.192 11.7363C203.302 11.7363 202.618 12.0621 202.142 12.7135C201.663 13.365 201.421 14.3175 201.409 15.576V16.6199C201.409 17.8932 201.636 18.8655 202.092 19.5367C202.549 20.2054 203.215 20.541 204.096 20.541C204.901 20.541 205.505 20.3609 205.91 19.9981C206.315 19.6354 206.571 19.0357 206.68 18.1942H208.718L208.716 18.1967Z" fill="#C4C4CC"/>
<path d="M220.481 11.9019H216.807V22.0341H214.776V11.9019H211.134V10.251H220.481V11.9019Z" fill="#C4C4CC"/>
<path d="M226.759 10.251H228.798V18.5128C228.798 19.6405 228.445 20.5363 227.741 21.2001C227.038 21.8639 226.108 22.1945 224.953 22.1945C223.724 22.1945 222.774 21.8836 222.105 21.2642C221.436 20.6448 221.101 19.7812 221.101 18.6756H223.139C223.139 19.3024 223.295 19.7713 223.606 20.0871C223.916 20.403 224.366 20.5609 224.953 20.5609C225.503 20.5609 225.942 20.3783 226.268 20.0156C226.594 19.6504 226.757 19.1494 226.757 18.5054V10.251H226.759Z" fill="#C4C4CC"/>
<path d="M238.952 18.9988C238.952 18.4806 238.769 18.0808 238.407 17.802C238.044 17.5231 237.385 17.2393 236.435 16.9531C235.485 16.6668 234.73 16.3485 234.17 15.9981C233.096 15.3244 232.558 14.4434 232.558 13.3601C232.558 12.4101 232.946 11.6278 233.721 11.0134C234.495 10.3989 235.5 10.0905 236.736 10.0905C237.555 10.0905 238.286 10.241 238.93 10.5445C239.571 10.8456 240.077 11.2774 240.443 11.8351C240.81 12.3928 240.993 13.0122 240.993 13.6933H238.955C238.955 13.0788 238.762 12.5976 238.377 12.2497C237.992 11.9017 237.439 11.7265 236.721 11.7265C236.053 11.7265 235.532 11.8697 235.164 12.1559C234.794 12.4422 234.609 12.8419 234.609 13.3527C234.609 13.7846 234.809 14.1449 235.209 14.4336C235.608 14.7223 236.265 15.0036 237.183 15.275C238.101 15.5465 238.836 15.8574 239.391 16.2054C239.947 16.5533 240.354 16.9531 240.613 17.4022C240.872 17.8538 241 18.3794 241 18.984C241 19.9661 240.625 20.7459 239.873 21.3258C239.12 21.9057 238.098 22.1969 236.81 22.1969C235.956 22.1969 235.174 22.039 234.458 21.7231C233.743 21.4072 233.188 20.9729 232.79 20.4152C232.393 19.86 232.196 19.211 232.196 18.4732H234.244C234.244 19.1419 234.466 19.6601 234.908 20.0278C235.349 20.3955 235.983 20.5781 236.81 20.5781C237.523 20.5781 238.056 20.435 238.417 20.1462C238.774 19.8575 238.955 19.475 238.955 19.0012L238.952 18.9988Z" fill="#C4C4CC"/>
<path d="M154.271 33.1458H149.313V0.569946H154.271V33.1458Z" fill="#00B37E"/>
</g>
<defs>
<filter id="filter0_d_24_175" x="0" y="0.00012207" width="245" height="41.7137" filterUnits="userSpaceOnUse" color-interpolation-filters="sRGB">
<feFlood flood-opacity="0" result="BackgroundImageFix"/>
<feColorMatrix in="SourceAlpha" type="matrix" values="0 0 0 0 0 0 0 0 0 0 0 0 0 0 0 0 0 0 127 0" result="hardAlpha"/>
<feOffset dy="4"/>
<feGaussianBlur stdDeviation="2"/>
<feComposite in2="hardAlpha" operator="out"/>
<feColorMatrix type="matrix" values="0 0 0 0 0 0 0 0 0 0 0 0 0 0 0 0 0 0 0.25 0"/>
<feBlend mode="normal" in2="BackgroundImageFix" result="effect1_dropShadow_24_175"/>
<feBlend mode="normal" in="SourceGraphic" in2="effect1_dropShadow_24_175" result="shape"/>
</filter>
</defs>
</svg>
